<?xml version="1.0" encoding="utf-8"?>
<!-- Generator: Adobe Illustrator 16.0.0, SVG Export Plug-In . SVG Version: 6.00 Build 0)  -->
<!DOCTYPE svg PUBLIC "-//W3C//DTD SVG 1.1//EN" "http://www.w3.org/Graphics/SVG/1.1/DTD/svg11.dtd">
<svg version="1.1" id="Calque_1" xmlns="http://www.w3.org/2000/svg" xmlns:xlink="http://www.w3.org/1999/xlink" x="0px" y="0px"
	 width="159px" height="147.28px" viewBox="0 0 159 147.28" enable-background="new 0 0 159 147.28" xml:space="preserve">
<g>
	<path fill-rule="evenodd" clip-rule="evenodd" fill="#FFFFFF" d="M80.074,14.926c0.683,0.029,1.365,0.073,2.047,0.083
		c12.26,0.188,24.182,2.132,35.563,6.865c6.162,2.562,11.874,5.855,16.745,10.48c3.335,3.166,6.068,6.757,7.649,11.132
		c0.725,2.005,1.249,5.175,1.136,6.882c-0.243,0-0.493,0-0.743,0c-41.526,0-83.052,0-124.577-0.002
		c-0.256,0-0.512-0.027-0.768-0.041c0-0.172,0-0.343,0-0.515c0.044-0.229,0.108-0.455,0.128-0.686
		c0.198-2.189,0.663-4.314,1.485-6.359c1.812-4.5,4.77-8.158,8.364-11.332c5.757-5.084,12.451-8.544,19.636-11.094
		c9.802-3.479,19.942-5.09,30.321-5.312c0.791-0.017,1.58-0.068,2.369-0.104C79.645,14.926,79.859,14.926,80.074,14.926z
		 M80.264,40.313c0.63-0.181,1.301-0.28,1.884-0.56c1.964-0.94,2.088-3.218,0.274-4.422c-1.633-1.084-4.098-0.646-5.253,0.935
		c-0.457,0.626-0.499,1.298-0.215,2.007C77.425,39.453,78.694,40.203,80.264,40.313z M61.479,29.079
		c0.412-0.169,1.25-0.364,1.91-0.818c1.415-0.973,1.41-2.727,0.092-3.828c-1.386-1.157-3.79-1.082-5.097,0.16
		c-1.066,1.013-1.061,2.514,0.016,3.524C59.149,28.82,60.081,29.013,61.479,29.079z M41.247,40.018c0.364,0,0.73,0.027,1.091-0.005
		c0.971-0.088,2.03-0.994,2.314-1.974c0.284-0.981-0.065-1.763-0.816-2.394c-1.354-1.138-3.473-1.223-4.903-0.202
		c-1.345,0.958-1.455,2.742-0.265,3.892C39.408,40.05,40.319,40.057,41.247,40.018z M120.071,40.228
		c0.702-0.171,1.353-0.245,1.932-0.488c1.436-0.604,1.927-1.985,1.215-3.319c-0.645-1.209-1.784-1.639-3.051-1.671
		c-1.296-0.033-2.464,0.375-3.167,1.574c-0.685,1.167-0.251,2.711,0.975,3.292C118.634,39.928,119.39,40.036,120.071,40.228z
		 M97.16,26.112c-0.025,0.918,0.141,1.65,0.803,2.188c1.288,1.044,3.729,1.004,4.982-0.081c1.213-1.05,1.21-2.638-0.007-3.681
		c-1.298-1.112-3.178-1.221-4.673-0.306C97.505,24.697,97.023,25.282,97.16,26.112z"/>
	<path fill-rule="evenodd" clip-rule="evenodd" fill="#FFFFFF" d="M143.176,105.559c0,0.685,0.008,1.324-0.001,1.963
		c-0.035,2.487,0.015,4.98-0.134,7.46c-0.276,4.621-2.556,8.176-6.135,10.979c-1.906,1.492-4.105,2.374-6.398,3.054
		c-0.22,0.065-0.466,0.057-0.7,0.057c-14.244,0.023-28.487,0.045-42.731,0.066c-9.502,0.014-19.006,0.055-28.509,0.032
		c-8.687-0.021-17.374-0.145-26.061-0.158c-4.061-0.007-7.354-1.67-10.291-4.311c-3.414-3.07-4.848-6.976-4.935-11.46
		c-0.047-2.466-0.035-4.934-0.047-7.4c0-0.081,0.021-0.163,0.039-0.282C59.219,105.559,101.147,105.559,143.176,105.559z"/>
	<path fill-rule="evenodd" clip-rule="evenodd" fill="#FFFFFF" d="M143.265,67.953c-0.12,1.429-0.139,2.875-0.378,4.284
		c-0.625,3.684-4.001,6.026-7.688,5.448c-2.199-0.345-4.243-1.168-6.311-1.941c-1.399-0.523-2.813-1.139-4.271-1.346
		c-2.49-0.353-5-0.303-7.389,0.755c-1.409,0.625-2.838,1.212-4.291,1.724c-3.096,1.09-6.217,1.115-9.312-0.018
		c-1.467-0.537-2.899-1.17-4.356-1.735c-3.3-1.28-6.618-1.23-9.922-0.035c-1.791,0.648-3.524,1.468-5.338,2.039
		c-2.589,0.815-5.21,0.932-7.809-0.102c-1.83-0.728-3.709-1.332-5.531-2.08c-2.853-1.171-5.706-1.018-8.546-0.073
		c-1.664,0.553-3.262,1.299-4.91,1.905c-3.303,1.214-6.619,1.25-9.92-0.022c-1.499-0.577-2.966-1.241-4.485-1.758
		c-3.189-1.086-6.392-1.096-9.559,0.121c-1.599,0.614-3.17,1.299-4.772,1.906c-2.044,0.774-4.204,0.848-6.278,0.41
		c-2.01-0.425-3.428-1.871-4.141-3.805c-0.409-1.109-0.662-2.322-0.72-3.501c-0.091-1.836-0.104-3.702,0.117-5.522
		c0.318-2.627,2.123-5.565,5.667-6.099c3.659-0.551,7.111-1.74,10.487-3.169c3.286-1.392,6.487-1.011,9.696,0.197
		c1.764,0.664,3.522,1.341,5.299,1.967c2.477,0.873,4.961,0.847,7.431-0.056c1.91-0.698,3.827-1.38,5.725-2.111
		c3.108-1.197,6.18-1.168,9.271,0.085c1.824,0.74,3.682,1.402,5.54,2.054c2.497,0.875,5.005,0.86,7.498-0.04
		c1.913-0.69,3.831-1.371,5.727-2.104c3.132-1.211,6.227-1.166,9.33,0.113c1.524,0.628,3.09,1.151,4.619,1.767
		c3.053,1.229,6.083,1.232,9.136-0.012c1.625-0.663,3.294-1.217,4.929-1.855c3.127-1.22,6.212-1.146,9.336,0.076
		c2.29,0.896,4.628,1.677,6.973,2.419c1.076,0.34,2.217,0.479,3.333,0.685c3.872,0.714,5.587,3.998,5.685,6.979
		c0.026,0.814,0.004,1.63,0.004,2.445C143.183,67.947,143.224,67.95,143.265,67.953z"/>
	<path fill-rule="evenodd" clip-rule="evenodd" fill="#FFFFFF" d="M80.543,101.503c-18.515,0-37.03-0.023-55.545,0.036
		c-1.907,0.006-3.414-0.683-4.817-1.756c-1.718-1.313-2.72-3.087-2.801-5.275c-0.069-1.883-0.062-3.77-0.03-5.653
		c0.03-1.779,0.917-3.181,2.126-4.405c1.56-1.578,3.46-2.429,5.668-2.554c0.328-0.019,0.726,0.119,0.995,0.315
		c2.528,1.846,5.036,3.72,7.548,5.587c2.616,1.944,5.215,3.912,7.854,5.824c1.251,0.906,0.911,0.859,2.11-0.055
		c4.708-3.588,9.386-7.214,14.094-10.802c0.365-0.278,0.86-0.479,1.315-0.528c1.297-0.142,2.605-0.24,3.91-0.242
		c0.518-0.001,1.125,0.176,1.54,0.478c3.347,2.434,6.655,4.92,9.979,7.386c1.722,1.277,3.431,2.572,5.182,3.809
		c1.047,0.741,1.089,0.711,2.124-0.084c4.861-3.741,9.713-7.494,14.582-11.224c0.263-0.202,0.647-0.332,0.979-0.34
		c1.501-0.036,3.004-0.038,4.505,0.001c0.352,0.009,0.758,0.147,1.038,0.36c4.999,3.807,9.977,7.642,14.973,11.452
		c0.974,0.742,0.698,0.729,1.664-0.002c4.307-3.264,8.598-6.55,12.897-9.824c0.443-0.338,0.921-0.629,1.36-0.973
		c1.815-1.424,3.669-1.065,5.46-0.032c1.376,0.793,2.426,1.98,3.217,3.357c0.26,0.452,0.438,0.992,0.499,1.509
		c0.303,2.565,0.34,5.144-0.015,7.701c-0.11,0.792-0.54,1.564-0.932,2.286c-0.271,0.498-0.708,0.912-1.106,1.332
		c-1.274,1.345-2.752,2.11-4.701,2.105c-5.706-0.015-11.412,0.123-17.118,0.144c-10.469,0.039-20.939,0.039-31.408,0.052
		c-2.381,0.004-4.763,0.001-7.144,0.001C80.543,101.493,80.543,101.498,80.543,101.503z"/>
</g>
</svg>
