<?xml version="1.0" encoding="utf-8"?>
<!-- Generator: Adobe Illustrator 16.0.0, SVG Export Plug-In . SVG Version: 6.00 Build 0)  -->
<!DOCTYPE svg PUBLIC "-//W3C//DTD SVG 1.1//EN" "http://www.w3.org/Graphics/SVG/1.1/DTD/svg11.dtd">
<svg version="1.1" id="Calque_1" xmlns="http://www.w3.org/2000/svg" xmlns:xlink="http://www.w3.org/1999/xlink" x="0px" y="0px"
	 width="159px" height="147.279px" viewBox="0 0 159 147.279" enable-background="new 0 0 159 147.279" xml:space="preserve">
<g>
	<path fill="#E0BA00" d="M80.074,14.926c0.683,0.029,1.365,0.073,2.047,0.083c12.26,0.188,24.182,2.132,35.563,6.865
		c6.162,2.562,11.875,5.854,16.746,10.479c3.334,3.166,6.067,6.757,7.648,11.132c0.725,2.006,1.249,5.176,1.136,6.883
		c-0.243,0-0.493,0-0.743,0c-41.525,0-83.052,0-124.577-0.002c-0.256,0-0.512-0.027-0.768-0.041c0-0.173,0-0.344,0-0.516
		c0.044-0.229,0.108-0.455,0.128-0.686c0.198-2.189,0.663-4.314,1.485-6.359c1.812-4.5,4.77-8.158,8.364-11.332
		c5.757-5.084,12.451-8.544,19.636-11.094c9.802-3.479,19.942-5.09,30.321-5.313c0.791-0.017,1.58-0.067,2.369-0.104
		C79.645,14.926,79.859,14.926,80.074,14.926z M80.264,40.313c0.631-0.181,1.301-0.279,1.885-0.56
		c1.963-0.94,2.088-3.218,0.273-4.422c-1.633-1.084-4.098-0.646-5.253,0.935c-0.457,0.626-0.499,1.298-0.215,2.007
		C77.425,39.453,78.694,40.203,80.264,40.313z M61.479,29.079c0.412-0.169,1.25-0.364,1.91-0.818
		c1.415-0.973,1.41-2.727,0.092-3.828c-1.386-1.157-3.79-1.082-5.097,0.16c-1.066,1.013-1.061,2.514,0.016,3.524
		C59.149,28.82,60.081,29.013,61.479,29.079z M41.247,40.018c0.364,0,0.73,0.027,1.091-0.005c0.971-0.088,2.03-0.994,2.314-1.974
		c0.284-0.981-0.065-1.764-0.816-2.395c-1.354-1.138-3.473-1.223-4.903-0.202c-1.345,0.958-1.455,2.742-0.265,3.893
		C39.408,40.05,40.319,40.057,41.247,40.018z M120.07,40.228c0.703-0.171,1.354-0.245,1.933-0.488
		c1.437-0.604,1.927-1.984,1.215-3.318c-0.646-1.209-1.784-1.64-3.051-1.671c-1.296-0.033-2.464,0.375-3.167,1.573
		c-0.686,1.168-0.251,2.712,0.975,3.293C118.634,39.928,119.391,40.036,120.07,40.228z M97.16,26.112
		c-0.025,0.918,0.141,1.65,0.803,2.188c1.288,1.044,3.729,1.004,4.982-0.081c1.213-1.05,1.209-2.638-0.008-3.681
		c-1.297-1.112-3.178-1.222-4.672-0.307C97.505,24.697,97.023,25.281,97.16,26.112z"/>
	<path fill="#E0BA00" d="M143.176,105.559c0,0.686,0.008,1.324-0.001,1.963c-0.034,2.487,0.015,4.98-0.134,7.46
		c-0.275,4.621-2.557,8.177-6.135,10.979c-1.906,1.492-4.105,2.374-6.398,3.054c-0.22,0.065-0.466,0.057-0.699,0.057
		c-14.244,0.023-28.488,0.046-42.731,0.066c-9.502,0.014-19.006,0.055-28.509,0.032c-8.687-0.021-17.374-0.146-26.061-0.158
		c-4.061-0.007-7.354-1.67-10.291-4.311c-3.414-3.07-4.848-6.977-4.935-11.46c-0.047-2.467-0.035-4.935-0.047-7.4
		c0-0.081,0.021-0.163,0.039-0.282C59.219,105.559,101.146,105.559,143.176,105.559z"/>
	<path fill="#E0BA00" d="M143.266,67.953c-0.121,1.429-0.14,2.875-0.379,4.283c-0.625,3.685-4,6.026-7.688,5.448
		c-2.199-0.345-4.243-1.168-6.311-1.94c-1.4-0.523-2.813-1.14-4.271-1.347c-2.49-0.353-5-0.303-7.389,0.755
		c-1.41,0.625-2.838,1.212-4.291,1.725c-3.097,1.09-6.217,1.115-9.313-0.019c-1.467-0.537-2.898-1.17-4.355-1.734
		c-3.301-1.28-6.619-1.23-9.922-0.035c-1.791,0.647-3.525,1.468-5.339,2.039c-2.589,0.814-5.21,0.932-7.809-0.103
		c-1.83-0.728-3.709-1.332-5.531-2.08c-2.853-1.171-5.706-1.018-8.546-0.072c-1.664,0.553-3.262,1.299-4.91,1.904
		c-3.303,1.215-6.619,1.25-9.92-0.021c-1.499-0.577-2.966-1.241-4.485-1.758c-3.189-1.086-6.392-1.097-9.559,0.121
		c-1.599,0.613-3.17,1.299-4.772,1.905c-2.044,0.774-4.204,0.849-6.278,0.41c-2.01-0.425-3.428-1.871-4.141-3.805
		c-0.409-1.109-0.662-2.322-0.72-3.501c-0.091-1.836-0.104-3.702,0.117-5.522c0.318-2.627,2.123-5.564,5.667-6.099
		c3.659-0.551,7.111-1.74,10.487-3.169c3.286-1.393,6.487-1.011,9.696,0.197c1.764,0.664,3.522,1.341,5.299,1.967
		c2.477,0.873,4.961,0.847,7.431-0.057c1.91-0.697,3.827-1.38,5.725-2.11c3.108-1.197,6.18-1.168,9.271,0.085
		c1.824,0.74,3.682,1.401,5.54,2.054c2.497,0.875,5.005,0.86,7.498-0.04c1.914-0.689,3.832-1.371,5.728-2.104
		c3.132-1.211,6.228-1.166,9.33,0.112c1.524,0.628,3.09,1.151,4.619,1.768c3.053,1.229,6.083,1.231,9.136-0.013
		c1.625-0.662,3.294-1.217,4.93-1.854c3.127-1.22,6.211-1.146,9.336,0.076c2.289,0.896,4.627,1.677,6.973,2.419
		c1.076,0.34,2.217,0.479,3.333,0.685c3.872,0.714,5.587,3.998,5.685,6.979c0.026,0.813,0.004,1.63,0.004,2.444
		C143.184,67.947,143.225,67.95,143.266,67.953z"/>
	<path fill="#E0BA00" d="M80.543,101.503c-18.515,0-37.03-0.023-55.545,0.036c-1.907,0.006-3.414-0.684-4.817-1.756
		c-1.718-1.313-2.72-3.088-2.801-5.275c-0.069-1.883-0.062-3.771-0.03-5.653c0.03-1.778,0.917-3.181,2.126-4.404
		c1.56-1.578,3.46-2.43,5.668-2.555c0.328-0.019,0.726,0.119,0.995,0.315c2.528,1.846,5.036,3.72,7.548,5.587
		c2.616,1.944,5.215,3.912,7.854,5.824c1.251,0.905,0.911,0.858,2.11-0.056c4.708-3.588,9.386-7.214,14.094-10.802
		c0.365-0.278,0.86-0.479,1.315-0.528c1.297-0.142,2.605-0.239,3.91-0.241c0.518-0.001,1.125,0.176,1.54,0.478
		c3.347,2.434,6.655,4.92,9.979,7.386c1.722,1.277,3.431,2.572,5.182,3.81c1.047,0.741,1.089,0.711,2.124-0.084
		c4.861-3.741,9.713-7.494,14.582-11.225c0.264-0.201,0.646-0.332,0.979-0.34c1.502-0.036,3.004-0.038,4.506,0.001
		c0.352,0.009,0.758,0.147,1.037,0.36c5,3.807,9.978,7.642,14.974,11.452c0.974,0.742,0.698,0.729,1.664-0.002
		c4.307-3.265,8.598-6.551,12.897-9.824c0.442-0.338,0.92-0.629,1.359-0.973c1.814-1.425,3.669-1.065,5.46-0.032
		c1.376,0.793,2.427,1.979,3.218,3.356c0.26,0.452,0.438,0.992,0.498,1.51c0.303,2.564,0.34,5.144-0.015,7.7
		c-0.11,0.792-0.54,1.564-0.933,2.286c-0.271,0.498-0.707,0.912-1.105,1.332c-1.273,1.346-2.752,2.11-4.701,2.105
		c-5.706-0.016-11.412,0.123-17.117,0.144c-10.47,0.039-20.939,0.039-31.408,0.052c-2.381,0.005-4.764,0.001-7.145,0.001
		C80.543,101.493,80.543,101.498,80.543,101.503z"/>
</g>
</svg>
